<svg id="visual" viewBox="0 0 1920 1080" width="1920" height="1080" xmlns="http://www.w3.org/2000/svg" xmlns:xlink="http://www.w3.org/1999/xlink" version="1.1"><rect x="0" y="0" width="1920" height="1080" fill="#931C1C"></rect><path d="M0 425L274 441L549 484L823 499L1097 501L1371 466L1646 476L1920 551L1920 1081L1646 1081L1371 1081L1097 1081L823 1081L549 1081L274 1081L0 1081Z" fill="#f5730a"></path><path d="M0 687L274 653L549 501L823 579L1097 525L1371 629L1646 574L1920 559L1920 1081L1646 1081L1371 1081L1097 1081L823 1081L549 1081L274 1081L0 1081Z" fill="#e3630a"></path><path d="M0 736L274 575L549 582L823 599L1097 713L1371 675L1646 672L1920 627L1920 1081L1646 1081L1371 1081L1097 1081L823 1081L549 1081L274 1081L0 1081Z" fill="#d15308"></path><path d="M0 677L274 704L549 702L823 668L1097 669L1371 725L1646 681L1920 742L1920 1081L1646 1081L1371 1081L1097 1081L823 1081L549 1081L274 1081L0 1081Z" fill="#be4407"></path><path d="M0 798L274 849L549 757L823 812L1097 846L1371 856L1646 829L1920 782L1920 1081L1646 1081L1371 1081L1097 1081L823 1081L549 1081L274 1081L0 1081Z" fill="#ac3505"></path><path d="M0 893L274 847L549 842L823 908L1097 874L1371 898L1646 863L1920 894L1920 1081L1646 1081L1371 1081L1097 1081L823 1081L549 1081L274 1081L0 1081Z" fill="#992503"></path><path d="M0 1013L274 952L549 942L823 946L1097 1005L1371 937L1646 973L1920 963L1920 1081L1646 1081L1371 1081L1097 1081L823 1081L549 1081L274 1081L0 1081Z" fill="#871400"></path></svg>