<svg id="visual" viewBox="0 0 1920 1080" width="1920" height="1080" xmlns="http://www.w3.org/2000/svg" xmlns:xlink="http://www.w3.org/1999/xlink" version="1.1"><rect x="0" y="0" width="1920" height="1080" fill="#228348"></rect><path d="M0 893L24.7 902.7C49.3 912.3 98.7 931.7 147.8 940.2C197 948.7 246 946.3 295.2 953.8C344.3 961.3 393.7 978.7 443 964.8C492.3 951 541.7 906 590.8 888.7C640 871.3 689 881.7 738.2 876C787.3 870.3 836.7 848.7 886 849.5C935.3 850.3 984.7 873.7 1034 882.5C1083.3 891.3 1132.7 885.7 1181.8 876C1231 866.3 1280 852.7 1329.2 868.5C1378.3 884.3 1427.7 929.7 1477 957.5C1526.3 985.3 1575.7 995.7 1624.8 987.5C1674 979.3 1723 952.7 1772.2 951.3C1821.3 950 1870.7 974 1895.3 986L1920 998L1920 1081L1895.3 1081C1870.7 1081 1821.3 1081 1772.2 1081C1723 1081 1674 1081 1624.8 1081C1575.7 1081 1526.3 1081 1477 1081C1427.7 1081 1378.3 1081 1329.2 1081C1280 1081 1231 1081 1181.8 1081C1132.7 1081 1083.3 1081 1034 1081C984.7 1081 935.3 1081 886 1081C836.7 1081 787.3 1081 738.2 1081C689 1081 640 1081 590.8 1081C541.7 1081 492.3 1081 443 1081C393.7 1081 344.3 1081 295.2 1081C246 1081 197 1081 147.8 1081C98.7 1081 49.3 1081 24.7 1081L0 1081Z" fill="#464646" stroke-linecap="round" stroke-linejoin="miter"></path></svg>