<svg id="visual" viewBox="0 0 1920 1080" width="1920" height="1080" xmlns="http://www.w3.org/2000/svg" xmlns:xlink="http://www.w3.org/1999/xlink" version="1.1"><path d="M0 185L40 194C80 203 160 221 240 251.5C320 282 400 325 480 346.5C560 368 640 368 720 380.7C800 393.3 880 418.7 960 407.8C1040 397 1120 350 1200 348.2C1280 346.3 1360 389.7 1440 425.7C1520 461.7 1600 490.3 1680 465.2C1760 440 1840 361 1880 321.5L1920 282L1920 0L1880 0C1840 0 1760 0 1680 0C1600 0 1520 0 1440 0C1360 0 1280 0 1200 0C1120 0 1040 0 960 0C880 0 800 0 720 0C640 0 560 0 480 0C400 0 320 0 240 0C160 0 80 0 40 0L0 0Z" fill="#93bfff"></path><path d="M0 390L40 413.3C80 436.7 160 483.3 240 504.8C320 526.3 400 522.7 480 529.8C560 537 640 555 720 560.5C800 566 880 559 960 530.3C1040 501.7 1120 451.3 1200 454.8C1280 458.3 1360 515.7 1440 558.8C1520 602 1600 631 1680 596.8C1760 562.7 1840 465.3 1880 416.7L1920 368L1920 280L1880 319.5C1840 359 1760 438 1680 463.2C1600 488.3 1520 459.7 1440 423.7C1360 387.7 1280 344.3 1200 346.2C1120 348 1040 395 960 405.8C880 416.7 800 391.3 720 378.7C640 366 560 366 480 344.5C400 323 320 280 240 249.5C160 219 80 201 40 192L0 183Z" fill="#7bb0ff"></path><path d="M0 552L40 562.8C80 573.7 160 595.3 240 615.2C320 635 400 653 480 669.2C560 685.3 640 699.7 720 699.7C800 699.7 880 685.3 960 658.3C1040 631.3 1120 591.7 1200 604.2C1280 616.7 1360 681.3 1440 713.7C1520 746 1600 746 1680 710C1760 674 1840 602 1880 566L1920 530L1920 366L1880 414.7C1840 463.3 1760 560.7 1680 594.8C1600 629 1520 600 1440 556.8C1360 513.7 1280 456.3 1200 452.8C1120 449.3 1040 499.7 960 528.3C880 557 800 564 720 558.5C640 553 560 535 480 527.8C400 520.7 320 524.3 240 502.8C160 481.3 80 434.7 40 411.3L0 388Z" fill="#62a1ff"></path><path d="M0 757L40 746.2C80 735.3 160 713.7 240 726.3C320 739 400 786 480 814.8C560 843.7 640 854.3 720 852.5C800 850.7 880 836.3 960 804C1040 771.7 1120 721.3 1200 737.5C1280 753.7 1360 836.3 1440 877.7C1520 919 1600 919 1680 883C1760 847 1840 775 1880 739L1920 703L1920 528L1880 564C1840 600 1760 672 1680 708C1600 744 1520 744 1440 711.7C1360 679.3 1280 614.7 1200 602.2C1120 589.7 1040 629.3 960 656.3C880 683.3 800 697.7 720 697.7C640 697.7 560 683.3 480 667.2C400 651 320 633 240 613.2C160 593.3 80 571.7 40 560.8L0 550Z" fill="#548ae1"></path><path d="M0 1081L40 1081C80 1081 160 1081 240 1081C320 1081 400 1081 480 1081C560 1081 640 1081 720 1081C800 1081 880 1081 960 1081C1040 1081 1120 1081 1200 1081C1280 1081 1360 1081 1440 1081C1520 1081 1600 1081 1680 1081C1760 1081 1840 1081 1880 1081L1920 1081L1920 701L1880 737C1840 773 1760 845 1680 881C1600 917 1520 917 1440 875.7C1360 834.3 1280 751.7 1200 735.5C1120 719.3 1040 769.7 960 802C880 834.3 800 848.7 720 850.5C640 852.3 560 841.7 480 812.8C400 784 320 737 240 724.3C160 711.7 80 733.3 40 744.2L0 755Z" fill="#4573c4"></path></svg>